<?xml version="1.0" encoding="UTF-8"?>
<svg height="110" width="500" xmlns="http://www.w3.org/2000/svg">
 <metadata/>
 <g fill="#040404">
  <g transform="matrix(1.37837 0 0 1.37837 -317.46 -234.72)">
   <path d="m317.404 244.976c-4.43539-.93604-8.79772-3.42803-12.379-7.0714-5.0623-5.15024-7.35325-10.6481-7.3804-17.7116-.0298-7.74225 1.99325-12.7293 7.36164-18.1478 5.48447-5.53559 10.5356-7.70258 17.9862-7.71643 7.07721-.0131 12.6739 2.34341 17.7491 7.47339 4.91203 4.9651 6.91379 9.43817 7.55434 16.8807.11688 1.35852.22758 3.50883-.11242 3.50883h-21.5838-23.6273l.25904 2.32238c.49638 4.45019 4.74537 9.90114 8.9454 12.7113 5.61066 3.75394 13.968 4.08859 20.3324.81415.90949-.46793 2.73139-1.83667 4.04862-3.04164l2.39497-2.19084 1.97119.96737c1.08416.53206 1.9712 1.2193 1.9712 1.52722 0 1.97165-7.53515 7.55068-12.1684 9.00949-3.76913 1.18673-9.49563 1.4725-13.3228.66481zm25.4122-27.728c.30078-.95726-1.37702-6.15342-2.67787-8.1109-7.0637-10.629-20.2823-12.9239-29.9068-5.19211-2.67955 2.1526-5.56299 6.36342-6.57238 9.59796-.5294 1.6965-.75237 3.70405-.47368 3.70505zm100.884 27.7028c-8.14556-1.78738-15.7634-8.73478-18.4187-16.7976-1.77403-5.38692-1.62794-12.2236.37683-17.636 2.73803-7.39207 9.95108-13.7141 17.7629-15.5687 6.32433-1.50144 14.0622-.21513 19.3812 3.22185 14.876 9.6123 15.9504 31.3838 2.07251 41.9944-3.54369 2.70937-6.57953 4.07839-10.6831 4.81751-4.17962.75281-6.95533.74449-10.4916-.0315zm11.6712-5.47396c10.9218-3.43364 16.9161-15.3728 13.1984-26.2879-3.15368-9.25904-12.8581-15.209-22.2436-13.638-5.98456 1.00171-12.403 5.56123-14.9625 10.6291-6.98293 13.8261 2.60224 30.0748 17.7699 30.1232 2.3059.008 4.51793-.28568 6.2379-.82642zm92.8545 5.6971c-7.37411-1.28581-14.7456-6.9029-18.0458-13.7508-1.92588-3.99629-2.53108-6.80366-2.53108-11.7408 0-7.30079 2.17067-12.5281 7.42795-17.8877 5.1072-5.20651 10.551-7.47998 17.8768-7.46579 10.6009.0206 19.6462 6.18658 23.9939 16.3562 2.48735 5.4325 1.32768 12.7227 1.38796 18.7434v15.3085h-5.15515v-8.47226c-.24729-.15437-1.98918 1.45163-3.32155 2.68167-5.62407 5.1921-13.9033 7.57548-21.6332 6.22765zm10.5892-5.73314c3.50939-1.0949 6.27493-2.92935 9.06491-6.01291 7.29544-8.06315 6.9189-20.1532-.87281-28.0237-11.0662-11.1781-29.9017-5.89663-33.8712 9.4975-1.33669 5.18385-.4257 11.2257 2.34498 15.5521 1.7408 2.71824 5.45217 6.35869 7.6827 7.53591 4.55989 2.40654 10.7497 2.98043 15.6514 1.45111zm-313.989-27.7608.00068-33.2781h18.1004c16.7746 0 18.2812.063 20.5694.85808 4.69142 1.6304 8.65959 5.21425 10.743 9.70247 1.02777 2.21407 1.1537 6.57103 1.1537 7.35925 0 .74284-.077 5.03166-1.43343 7.81503-2.40635 4.93742-7.19723 8.65541-12.4496 9.66158-1.21899.23352-8.66979.42444-16.5573.42444h-14.6069v30.7353h-5.52082zm38.3176-3.80645c3.05352-1.43633 6.14842-5.01273 7.0506-8.14755 1.73035-6.01241-1.22584-12.2709-7.0735-14.9751l-2.27876-1.05382-30.5426.2327-.005 24.9862 15.4464-.005c15.0147-.006 15.2329-.0173 17.4033-1.03818zm112.288 37.0002c-2.07204-.35037-5.4763-1.58651-7.29536-2.64908-3.43965-2.00918-6.87376-6.60029-7.33131-10.5668l4.31875-1.07236c4.89576 10.5973 13.6132 11.2517 20.5576 9.26682 3.06198-.9553 5.55662-2.79508 6.62816-4.88818.8106-1.58338.81922-5.83505.015-7.38569-.92169-1.77713-3.31026-3.92709-5.29102-4.76246-.96317-.40621-5.10043-1.71839-9.19391-2.91597-4.09345-1.19758-8.24147-2.5658-9.21784-3.04049-4.09557-1.99123-6.48992-5.84085-6.45344-10.3758.0624-7.77767 6.09456-12.1484 16.7658-12.1484 6.846 0 11.3048 1.6423 14.7708 5.44044 1.64175 1.79912 2.94106 5.24102 2.79028 5.75628l-4.64576.80757-1.09452-2.1275c-1.50404-2.92352-3.79862-4.43063-8.09206-5.31501-4.09495-.84347-8.10728-.43114-11.3807 1.16951-6.05048 2.95861-5.27215 11.1405 1.30578 13.7266.72132.28358 4.56219 1.39495 8.53527 2.46972s8.22725 2.44783 9.45373 3.05127c4.92343 2.42237 7.6121 6.6378 7.6121 11.9346 0 7.29356-5.05626 12.1901-13.9258 13.486-2.92111.42683-6.77043.48731-8.83146.13882zm-39.5484-.13687v-18.543c0-8.14851-.0662-16.2096.16735-17.663 1.36434-8.49323 8.26088-14.2086 17.145-14.2086h2.53485v4.73691l-3.23252.24696c-1.77789.13582-3.89578.58448-4.7064.99702-2.04034 1.03837-4.64875 3.62815-5.77957 5.73833-.92254 1.7215-.95139 2.26402-1.0755 20.2322l-.12749 18.4631zm126.241 0c-.14616-.38471-.005-8.29806 0-16.7304.0102-20.0297.37246-21.8602 5.42154-27.369 11.1863-12.2048 31.1588-5.82205 33.5147 10.7107.24412 1.71303.42678 8.76567.42678 15.9524v17.4363h-5.00305l-.21889-17.4681c-.21182-16.903-.23907-17.288-1.22875-19.2974-1.62799-3.30525-3.80744-5.52529-6.9665-7.09622-5.42125-2.69587-11.572-1.76904-16.1826 2.43847-2.04605 2.16955-3.83028 4.21234-4.29839 8.03457l-.11 14.815c-.0677 9.12103.12456 18.0264 0 18.5737z"/>
   <path d="m303.532 188.848c-.94409-.11786-2.60101-.47288-3.46166-.74168l-.33339-.10411 3.14132-1.71578 1.07764.33946c1.85771.58515 2.91261.76157 4.59125.76776 1.37698.004 1.52617-.0118 1.97263-.22462.57824-.2755 1.05633-.9261 1.05633-1.43755 0-.26155-.0829-.40869-.38807-.68974-.5558-.51171-1.7626-.90194-4.18021-1.35165-3.74248-.69618-4.53115-.9244-5.69835-1.64891-2.48142-1.54033-.40665-3.62607 4.55629-4.58038 2.8261-.54341 5.71038-.51409 8.13831.0828 1.01239.24889 2.3242.72619 2.23003.81143-.0766.0693-3.22835 1.30685-3.32841 1.30685-.0553 0-.3249-.10464-.59891-.23261-1.77466-.82859-4.81996-1.24669-6.34567-.87123-.45351.1116-.67897.23432-.96431.52491-.42556.4334-.46881.72277-.16401 1.0978.49896.6139 1.60486.94707 5.15434 1.55277 3.4929.59605 4.47051.8785 5.21223 1.50593.9202.77841.73019 1.91254-.4902 2.92584-2.07907 1.7263-5.03485 2.67424-8.64478 2.77245-.92539.0252-1.88462-.008-2.5324-.0896zm76.5681-.10933c-.40964-.0693-.96269-.12875-1.22896-.13207-.5577-.007-.54297.19708-.11493-1.59192.13909-.58152.49895-2.50624.79964-4.27715.76606-4.5116.86769-5.07503.93328-5.17475.0317-.0484.72937-.10607 1.55008-.12823l1.49222-.0403.40975.67723c.55753.92146 2.04919 2.88023 3.98334 5.23065.88632 1.07707 1.69778 2.07187 1.80326 2.21067.175.23028.20317.23835.32204.0922 1.65035-2.02779 4.97046-6.26572 5.8666-7.48837l.4632-.63199 1.36706-.10694c.75188-.0589 1.38578-.0889 1.4086-.0668.0229.0221.0769.63616.12034 1.36451.12238 2.05758.44185 4.84477.98805 8.6201.10647.73606.17856 1.35285.16016 1.37067-.0183.0179-.72884.06-1.57875.0941l-1.54528.0618-.0606-.66344c-.12833-1.40594-.2776-2.36454-.65711-4.21974-.21625-1.05728-.42747-2.16021-.46935-2.45095-.042-.29075-.10355-.52863-.13707-.52863-.0984 0-4.15297 4.91607-5.0617 6.13733l-.83294 1.11939h-.80482-.80481l-.48635-.59928c-.26752-.32963-1.03072-1.21087-1.69603-1.95836-1.39371-1.56586-2.65587-3.16138-3.11406-3.93644-.17486-.29579-.35475-.50193-.39975-.45802-.0449.0439-.26539 1.29089-.48982 2.77107-.39065 2.57646-.59336 3.70828-.80487 4.49341-.11161.41435-.14447.41936-1.38046.21019zm49.2911-.0564c.38812-.51576.56189-.81121.56224-.95592 0-.13926-.066-.14042-.71962-.0127-1.06655.20821-3.33474.19989-4.1462-.0153-1.27032-.33675-2.09144-.95781-2.44245-1.84733-.21152-.53607-.12511-.8545.35086-1.29269 1.27438-1.17334 5.15245-2.03082 7.80053-1.72482.91817.1061 2.30814.44281 2.21202.53586-.0237.0229-.49483.17247-1.047.33234l-1.00394.2907-1.17227-.30811c-2.02645-.53258-3.65877-.40535-4.5789.35692-.69059.57212-.87223 1.10233-.57083 1.66644.32026.5994 1.32712 1.21411 2.4718 1.50907.69657.17951 2.11508.1721 2.65972-.0138.73649-.25149 1.37837-.97886 1.37837-1.56197v-.27801l1.06759-.0997c.58716-.0548 1.08325-.0862 1.10242-.0695.039.0338-.74729 1.41052-1.49174 2.61158-.54778.88376-.59718.91054-1.91353 1.03677l-.68902.0661.16995-.22584zm72.005-.14773c.31855-1.5119.50464-5.51259.36826-7.91667-.061-1.07309-.13635-1.9759-.16769-2.00623-.0313-.0303-1.56407-.0443-3.40603-.031-3.99972.0288-4.09562.008-3.08063-.64862.35016-.22676.73537-.49847.85603-.60383.20592-.17979.27325-.18487 1.09582-.0828 1.91528.23773 5.07118.32395 9.7082.26524 2.56716-.0326 4.98039-.0989 5.36275-.14767.5367-.0684.72568-.0599.82911.0368.1123.10507.11008.16204-.0136.35268-.0812.12505-.20039.38822-.26479.58481l-.11704.35743-.96159-.069c-.52889-.0381-1.85538-.0692-2.94781-.0692h-1.98619l-.0788.52865c-.0433.29075-.10344 2.56556-.13372 5.05512l-.055 4.5265-2.15044-.01c-1.18272-.004-2.32214.0261-2.53207.069-.37927.0777-.38132.0764-.32469-.19223zm-149.302-.55513c0-.0219.0692-.32839.15373-.68127.18392-.76748.22254-1.91331.11404-3.38317l-.0798-1.0813h.31665c.17413 0 .59623-.0498.93793-.11079.6115-.10907.62934-.10606 1.12577.18957.27742.16522 1.2543.67513 2.17081 1.13316.91651.45801 2.30841 1.15341 3.09311 1.54531.78471.39192 1.44663.69332 1.4709.66982.0243-.0236.0896-.77177.14536-1.66281.0556-.89107.14066-1.6596.18889-1.70786.0482-.0482.45179-.10818.89678-.13312.75661-.0424.80559-.0336.75532.13584-.26728.90069-.48669 3.09014-.40007 3.99211.0494.51429.0335.66278-.0753.695-.076.0226-.35833.10659-.62738.18683l-.48919.14585-1.09978-.50783c-.60486-.27931-2.34221-1.10266-3.86069-1.82969-1.51852-.72701-2.78267-1.30086-2.80919-1.27516-.0482.0467-.21612 1.86432-.26385 2.85716l-.0254.52679-.49654.10571c-.87144.18554-1.14207.23052-1.14207.18984zm179.354-.021c.00006-.0432.072-.40295.15973-.79941.12934-.58405.14812-1.06294.0989-2.52305l-.0608-1.80218h.37586c.20673 0 .60357-.0571.88186-.12702l.50601-.12703.78186.44691c.90962.51994 6.49553 3.29918 6.53504 3.25147.0146-.0179.0769-.7844.13831-1.70372.0614-.91935.13162-1.6909.15614-1.71463.0246-.0237.4116-.0675.86022-.0973l.81564-.0542-.0575.327c-.25977 1.47793-.38158 2.74917-.3423 3.57245l.0448.93869-.556.15892c-.30578.0875-.62697.15483-.71372.14977-.0867-.004-1.84902-.81306-3.91611-1.79564-2.483-1.18023-3.78185-1.74977-3.82747-1.67833-.038.0593-.0986.58984-.13472 1.1786-.0361.58876-.0915 1.31454-.12298 1.61286l-.0574.54236-.60909.1119c-.33497.0616-.68725.13396-.78285.16094-.0957.027-.17376.0139-.17372-.0295zm19.1668-.00007c-.52578-.0464-1.48548-.22588-1.77079-.33085-.24593-.0906-.23394-.10454.40441-.47457l.65786-.38129.86191.24173c.57819.16216 1.10599.24173 1.60327.24173.68699 0 .76268-.0207 1.03167-.28094.33227-.32158.36172-.50123.12043-.73474-.26944-.26078-.76517-.42375-2.18895-.71959-1.87672-.38994-2.5074-.72998-2.5074-1.35184 0-.83503 2.3202-1.60505 4.51863-1.49962 1.00158.048 2.44695.39315 2.27143.54236-.0476.0405-.37765.19063-.73335.33363l-.64672.26001-.44568-.18897c-1.3773-.58397-3.16145-.45984-3.05693.21266.0573.3686.50394.54791 2.17854.87448 1.74667.34062 2.17284.49359 2.42892.87183.3096.45732-.0997 1.08978-1.0718 1.65626-.81903.47727-2.56302.82447-3.65545.72772zm-217.688-1.22312v-1.21783l-3.15309.0597c-1.73421.033-3.20225.0739-3.26233.0913-.0652.0189-.13164.42602-.16483 1.00869-.0306.53736-.0715.99241-.0909 1.01118-.0194.0188-.53007.0645-1.13489.10146l-1.09964.0674.0759-.51732c.0415-.28451.0792-.88607.0832-1.33679.006-.72427-.0276-1.1335-.23721-2.85692l-.0497-.40849h1.18982c1.16393 0 1.19009.004 1.20245.21625.006.11895.0403.69204.0745 1.27353l.062 1.05728 2.9793-.0372c1.63862-.0205 3.07713-.0724 3.19672-.11557.34639-.12483.46781-.45677.52426-1.43316l.0528-.91309 1.14206.0341c.62813.0188 1.14432.0405 1.14706.048.003.007-.0261.46802-.064 1.02309-.038.55507-.0737 1.66882-.0794 2.47498l-.0107 1.46575-.81931.00053c-.45063.00036-.98688.0279-1.19172.0607l-.37242.0596v-1.21784zm105.765 1.11284c0-.0201.1229-.12909.27309-.24206 1.19761-.90076 3.45884-2.80083 4.43094-3.72328l1.17853-1.11831.75801-.0541.75804-.0542.29659.44928c.46356.70218 1.89164 2.25907 3.25538 3.54902l1.24478 1.17741-.66045.00034c-.36326.00035-.95093.0226-1.30596.0496l-.64552.0489-.6685-.74637c-1.27343-1.42177-.98699-1.2751-2.48863-1.27415-2.26172.00054-2.19804-.0179-3.32372 1.00985l-.9729.88825-1.06484.0383c-.58566.0209-1.06484.0218-1.06484.00054zm6.27359-2.32303h1.18396l-.61308-.69685c-.33718-.38324-.64134-.72752-.67589-.76499-.0345-.0375-.44229.30398-.90605.75881-.81237.79671-.83096.82472-.50805.76501.18432-.034.86794-.0619 1.51911-.0619zm12.3719 2.3316c-.36869-.0184-.67034-.0523-.67034-.0754 0-.0229.066-.20478.14645-.40407.13719-.3395.60851-2.12064 1.00192-3.78637l.17307-.73276.98209-.0459.98209-.0458.7158.71723c.61214.61336 2.73223 2.48879 3.27307 2.89533.15495.11648.26806.0486 1.04275-.62602 1.0289-.89598.83121-.72032 2.14939-1.91007.5857-.52865 1.18519-.98849 1.33222-1.02188.14704-.0334.56001-.0659.91775-.0721l.65043-.0113.11943 1.03323c.0657.56829.25004 1.7033.40968 2.52226.15965.81895.28246 1.49615.27291 1.50488-.01.008-.47544.047-1.03528.0853l-1.01794.0693v-.29444c0-.59962-.70716-3.25748-.85366-3.20854-.10847.0363-2.33759 1.90637-3.16401 2.65445-.55794.50505-.61991.53526-1.09243.53264-.48563-.004-.5358-.0309-1.64299-.9214-.62815-.50523-1.46606-1.22737-1.86207-1.60474-.396-.37739-.71999-.65954-.71999-.62705 0 .15399-.42491 2.03708-.60909 2.69942-.20489.73674-.21057.7447-.51902.72609-.17155-.0106-.61353-.0339-.98223-.0524zm-114.717-.70795c.0416-.39082.0785-1.54316.0819-2.56075l.006-1.85017 1.13023-.00006 1.13023-.00003-.0635.36043c-.1417.80499-.1766 2.44285-.074 3.47746.0599.60424.0887 1.11809.0644 1.14188-.0246.0237-.56361.0654-1.1978.0926l-1.1531.0493.0755-.71057zm66.8111.53843c.0315-.0797.13158-.49902.22225-.93214.19546-.9337.14676-2.63451-.097-3.38807-.0847-.26185-.14394-.48586-.1316-.49779.0199-.0195 6.33784-.0604 6.56902-.0425.0517.004-.12377.14082-.38982.30414l-.48377.2969-3.14308-.1378v.89027.89029l3.55691-.0902-.41634.54502h-1.61993-1.61995v.32229c0 .17726-.0287.58817-.0638.91311l-.0638.5908h2.19896c1.20944 0 2.19896.0352 2.19896.0783s-.15793.15119-.35095.24027c-.3054.14099-.74504.16199-3.38716.16199-2.66275 0-3.02915-.0179-2.97886-.14468zm68.4222-.72007c.036-.49216.0656-1.64514.0656-2.56212v-1.66725h1.15271c1.05883 0 1.14687.0138 1.08122.16819-.11986.28207-.17227 3.29344-.0706 4.06091.0524.39645.0828.73503.0674.75237-.0154.0172-.55318.0566-1.19495.0871l-1.16687.0556.0656-.89485zm40.3487.4082c.3556-1.1408.35178-3.15698-.008-4.1435l-.14509-.39797 2.95009-.00054c1.62252-.00034 3.11765-.0279 3.32247-.0607.49522-.0792.46978.0501-.0754.38336l-.4475.27363-3.18446-.1398.0289.85348.0289.85347 1.75727-.007c1.80383-.007 1.81754-.004 1.48948.36668-.13085.14745-.34964.16821-1.77249.16821h-1.62325v.46716c0 .25696-.0282.66702-.0629.91126l-.063.4441 4.54511.0518-.3781.21624c-.37011.21171-.44288.21626-3.44131.21626h-3.06322l.1423-.45653zm44.0323.38447c0-.0397.0707-.28835.15575-.55266.23347-.72552.29305-2.54583.11006-3.36406-.0827-.37004-.18017-.74534-.21651-.83398-.0609-.1485.19407-.1636 3.24388-.19223 1.8204-.017 3.3242-.0245 3.34165-.0165.0172.008-.17539.15276-.42871.32141l-.46051.30667-3.16461-.1386v.8903.89027l1.78166-.0453 1.78165-.0452-.21755.26728-.21748.26726-3.19053.014-.0931.91147-.0931.9115 4.46895.0512-.34758.21589c-.34096.2118-.40569.21592-3.40139.21626-1.67957.00021-3.05328-.0321-3.05271-.0717zm12.8443-1.09639c.0358-.64267.065-1.78885.065-2.54709v-1.37856h1.12726 1.12722l-.0856.5046c-.10441.61596-.12036 2.69726-.0285 3.71636l.0674.74787-.47227.0626c-.25973.0345-.78572.0626-1.16886.0626h-.69655l.065-1.16847z"/>
  </g>
  <path d="m542.373 390.353c.5496.00001 1.07689.13741 1.58187.4122.50496.27481.90182.66889 1.19058 1.18222.28875.51334.43312 1.0504.43313 1.61116-.00001.55798-.14159 1.09015-.42476 1.59651-.28318.50637-.67795.90114-1.18431 1.18431-.50637.28317-1.03854.42476-1.59651.42476-.55798 0-1.09015-.14159-1.59651-.42476-.50637-.28317-.90114-.67794-1.18431-1.18431-.28317-.50636-.42476-1.03853-.42476-1.59651 0-.56076.14438-1.09782.43313-1.61116.28875-.51333.68561-.90741 1.19058-1.18222.50497-.27479 1.03226-.41219 1.58187-.4122zm.004.62772c-.4408.00001-.86347.11021-1.268.33061s-.72328.53705-.95623.94995c-.23296.41291-.34944.84534-.34944 1.2973 0 .44917.11369.87742.34107 1.28474.22737.40733.54472.72537.95205.95414.40732.22877.83417.34316 1.28055.34316.44917 0 .87672-.11439 1.28265-.34316s.72328-.54681.95205-.95414c.22877-.40732.34315-.83557.34316-1.28474-.00001-.45196-.11648-.88439-.34943-1.2973-.23296-.4129-.55241-.72955-.95833-.94995-.40593-.2204-.8293-.3306-1.2701-.33061zm-1.45213 4.29364v-3.40227h.6905c.64725.00001 1.00993.003 1.08805.008.22877.0195.40662.0649.53357.13601.12693.0712.23295.17995.31804.32642.0851.14647.12764.30898.12764.48753 0 .24551-.0802.45545-.24063.62982-.16042.17437-.3857.28247-.67585.32432.10323.0391.18274.0816.23854.12764.0558.046.13251.13322.23016.26155.0251.0335.10881.17158.25109.4143l.40175.68631h-.85371l-.28457-.5524c-.1925-.37105-.35152-.6047-.47707-.70096-.12554-.0962-.28457-.14437-.47707-.14437h-.17994v1.39773zm.6905-1.93339h.28038c.39895 0 .64655-.0153.74281-.046.0962-.0307.17227-.0844.22807-.16111.0558-.0767.0837-.1639.0837-.26155-.00001-.0949-.0272-.17925-.0816-.25319-.0544-.0739-.13182-.12693-.23226-.15902-.10044-.0321-.34734-.0481-.74071-.0481h-.28038z" fill="#040404" transform="matrix(1.4136 0 0 1.4136 -273.04 -539.48)"/>
 </g>
</svg>
